<?xml version="1.0" encoding="iso-8859-1"?>
<!-- Generator: Adobe Illustrator 19.0.0, SVG Export Plug-In . SVG Version: 6.00 Build 0)  -->
<svg version="1.1" id="Capa_1" xmlns="http://www.w3.org/2000/svg" xmlns:xlink="http://www.w3.org/1999/xlink" x="0px" y="0px"
	 viewBox="0 0 491.001 491.001" style="enable-background:new 0 0 491.001 491.001;" xml:space="preserve">
<g>
	<g>
		<path d="M470.4,1.45l-447.5-1c-11.4,0-20.8,9.3-20.8,20.8L0,467.65c0,11.4,9.3,20.8,20.8,20.8l447.4,2.1
			c11.4,0,19.7-9.3,21.8-20.8l1-447.4C491.1,10.85,481.8,1.45,470.4,1.45z M447.5,448.95l-406.9-1l2-407l405.9,1L447.5,448.95z"/>
		<path d="M245.1,306.75c33.8,0,61.3-27.4,61.3-61.3s-27.4-61.3-61.3-61.3s-61.3,27.4-61.3,61.3S211.3,306.75,245.1,306.75z
			 M245.1,224.15c11.8,0,21.3,9.5,21.3,21.3c0,11.8-9.5,21.3-21.3,21.3s-21.3-9.5-21.3-21.3S233.3,224.15,245.1,224.15z"/>
		<path d="M245.1,422.95c98,0,177.5-79.5,177.5-177.5s-79.5-177.5-177.5-177.5s-177.5,79.5-177.5,177.5S147,422.95,245.1,422.95z
			 M245.1,106.85c76.5,0,138.6,62,138.6,138.6s-62,138.6-138.6,138.6s-138.6-62-138.6-138.6S168.5,106.85,245.1,106.85z"/>
	</g>
</g>
<g>
</g>
<g>
</g>
<g>
</g>
<g>
</g>
<g>
</g>
<g>
</g>
<g>
</g>
<g>
</g>
<g>
</g>
<g>
</g>
<g>
</g>
<g>
</g>
<g>
</g>
<g>
</g>
<g>
</g>
</svg>
