<?xml version="1.0" encoding="iso-8859-1"?>
<!-- Generator: Adobe Illustrator 19.0.0, SVG Export Plug-In . SVG Version: 6.00 Build 0)  -->
<svg version="1.1" id="Capa_1" xmlns="http://www.w3.org/2000/svg" xmlns:xlink="http://www.w3.org/1999/xlink" x="0px" y="0px"
	 viewBox="0 0 491.025 491.025" style="enable-background:new 0 0 491.025 491.025;" xml:space="preserve">
<g>
	<path d="M417.638,30.036c-87.5-48.1-136.9-31.4-188.3,1.1c-57.4,36.2-81.1,107.2-66.6,172.7l-144.6,169.5
		c-23.9,28.1-21.9,70.8,5.2,96.8c12.1,15.3,57.4,37.1,92.6,2.1l170.6-145.6c64.8,14.8,122.8-12.5,154-43.7
		C535.938,187.436,471.838,59.836,417.638,30.036z M90.938,443.036c-11.4,9.4-29.1,8.3-39.5-2.1c-11.4-11.4-12.5-30.2-2.1-42.7
		l137.1-159.6l66.6,65.9L90.938,443.036z M294.138,287.336l-90-89c-9.5-35.7-1.9-73.5,19.2-103.3l172,174.7
		C374.638,283.936,340.838,297.536,294.138,287.336z M425.138,241.336l-172.8-175.5c62.2-42.8,123.2-16.7,143.4-1.4
		C482.338,129.836,443.438,216.936,425.138,241.336z"/>
</g>
<g>
</g>
<g>
</g>
<g>
</g>
<g>
</g>
<g>
</g>
<g>
</g>
<g>
</g>
<g>
</g>
<g>
</g>
<g>
</g>
<g>
</g>
<g>
</g>
<g>
</g>
<g>
</g>
<g>
</g>
</svg>
