<?xml version="1.0" encoding="iso-8859-1"?>
<!-- Generator: Adobe Illustrator 19.0.0, SVG Export Plug-In . SVG Version: 6.00 Build 0)  -->
<svg version="1.1" id="Capa_1" xmlns="http://www.w3.org/2000/svg" xmlns:xlink="http://www.w3.org/1999/xlink" x="0px" y="0px"
	 viewBox="0 0 489.99 489.99" style="enable-background:new 0 0 489.99 489.99;" xml:space="preserve">
<g>
	<path d="M486.328,20.69c0.6-6.7-7-24.9-26-19.8l-275.7,82.2c-8.3,3.1-14.6,10.4-14.6,19.8v263.1c-17.3-8.4-38.8-13.4-62.4-13.4
		c-58.3,0-104,30.2-104,68.7s45.8,68.7,104,68.7s103-28.1,102-82.7v-289.8l235.1-69.7v221.5c-17.3-8.4-38.8-13.4-62.4-13.4
		c-58.3,0-104,30.2-104,68.7s45.8,68.7,104,68.7c57.2,0,103-30.2,104-68.7C486.328,323.19,486.328,20.69,486.328,20.69z
		 M170.128,421.19c0,11.4-25,28.1-62.4,28.1c-37.5,0-62.4-16.6-62.4-28.1c0-11.4,25-28.1,62.4-28.1
		C146.128,393.09,171.128,409.79,170.128,421.19z M382.328,352.59c-37.5,0-62.4-16.6-62.4-28.1s25-28.1,62.4-28.1
		c37.5,0,62.4,16.6,62.4,28.1S419.728,352.59,382.328,352.59z"/>
</g>
<g>
</g>
<g>
</g>
<g>
</g>
<g>
</g>
<g>
</g>
<g>
</g>
<g>
</g>
<g>
</g>
<g>
</g>
<g>
</g>
<g>
</g>
<g>
</g>
<g>
</g>
<g>
</g>
<g>
</g>
</svg>
